<svg width="20" height="21" viewBox="0 0 20 21" fill="none" xmlns="http://www.w3.org/2000/svg">
<g id="Live area">
<path id="Vector" d="M5.70711 4.79289C5.31658 4.40237 4.68342 4.40237 4.29289 4.79289C3.90237 5.18342 3.90237 5.81658 4.29289 6.20711L8.58579 10.5L4.29289 14.7929C3.90237 15.1834 3.90237 15.8166 4.29289 16.2071C4.68342 16.5976 5.31658 16.5976 5.70711 16.2071L10 11.9142L14.2929 16.2071C14.6834 16.5976 15.3166 16.5976 15.7071 16.2071C16.0976 15.8166 16.0976 15.1834 15.7071 14.7929L11.4142 10.5L15.7071 6.20711C16.0976 5.81658 16.0976 5.18342 15.7071 4.79289C15.3166 4.40237 14.6834 4.40237 14.2929 4.79289L10 9.08579L5.70711 4.79289Z" fill="#5B6876"/>
</g>
</svg>
