<svg width="54" height="59" viewBox="0 0 54 59" fill="none" xmlns="http://www.w3.org/2000/svg">
<mask id="path-1-inside-1_961_9887" fill="white">
<path fill-rule="evenodd" clip-rule="evenodd" d="M50.9996 23.9998C50.9996 37.2545 40.2545 47.9996 26.9998 47.9996C22.6743 47.9996 18.6161 46.8553 15.1114 44.8529C20.1826 44.1704 28.9476 42.5521 31.9998 39.4999L22.9998 25.9999C19.2788 29.2558 10.3148 33.9285 4.4551 32.2484C3.51373 29.6763 3 26.898 3 23.9998C3 10.7451 13.7451 0 26.9998 0C31.4532 0 35.6233 1.21298 39.1977 3.32657C33.977 4.14194 26.0238 5.89035 23.1861 8.72807L32.091 21.8189C35.6453 18.7089 43.678 14.4589 49.4737 15.5604C50.4601 18.1857 50.9996 21.0298 50.9996 23.9998Z"/>
</mask>
<path fill-rule="evenodd" clip-rule="evenodd" d="M50.9996 23.9998C50.9996 37.2545 40.2545 47.9996 26.9998 47.9996C22.6743 47.9996 18.6161 46.8553 15.1114 44.8529C20.1826 44.1704 28.9476 42.5521 31.9998 39.4999L22.9998 25.9999C19.2788 29.2558 10.3148 33.9285 4.4551 32.2484C3.51373 29.6763 3 26.898 3 23.9998C3 10.7451 13.7451 0 26.9998 0C31.4532 0 35.6233 1.21298 39.1977 3.32657C33.977 4.14194 26.0238 5.89035 23.1861 8.72807L32.091 21.8189C35.6453 18.7089 43.678 14.4589 49.4737 15.5604C50.4601 18.1857 50.9996 21.0298 50.9996 23.9998Z" fill="#267DC2"/>
<path d="M15.1114 44.8529L15.0847 44.6547L14.4992 44.7335L15.0122 45.0266L15.1114 44.8529ZM31.9998 39.4999L32.1412 39.6413L32.2572 39.5254L32.1662 39.389L31.9998 39.4999ZM22.9998 25.9999L23.1662 25.889L23.0397 25.6992L22.8681 25.8494L22.9998 25.9999ZM4.4551 32.2484L4.26728 32.3172L4.30223 32.4127L4.39998 32.4407L4.4551 32.2484ZM39.1977 3.32657L39.2286 3.52417L39.7794 3.43815L39.2995 3.15441L39.1977 3.32657ZM23.1861 8.72807L23.0446 8.58664L22.9276 8.70369L23.0207 8.84056L23.1861 8.72807ZM32.091 21.8189L31.9257 21.9314L32.0527 22.1181L32.2227 21.9694L32.091 21.8189ZM49.4737 15.5604L49.661 15.49L49.6215 15.3849L49.5111 15.3639L49.4737 15.5604ZM26.9998 48.1996C40.365 48.1996 51.1996 37.365 51.1996 23.9998H50.7996C50.7996 37.1441 40.1441 47.7996 26.9998 47.7996V48.1996ZM15.0122 45.0266C18.5463 47.0458 22.6386 48.1996 26.9998 48.1996V47.7996C22.71 47.7996 18.6859 46.6648 15.2106 44.6793L15.0122 45.0266ZM31.8584 39.3585C31.1202 40.0967 30.0253 40.7581 28.7052 41.3453C27.3875 41.9313 25.8577 42.438 24.2603 42.872C21.0655 43.7402 17.6161 44.314 15.0847 44.6547L15.1381 45.0512C17.678 44.7093 21.1466 44.1327 24.3652 43.258C25.9745 42.8207 27.5252 42.3079 28.8678 41.7107C30.208 41.1147 31.3533 40.4292 32.1412 39.6413L31.8584 39.3585ZM22.8334 26.1109L31.8334 39.6109L32.1662 39.389L23.1662 25.889L22.8334 26.1109ZM4.39998 32.4407C7.39469 33.2993 11.1523 32.5311 14.6033 31.161C18.0605 29.7885 21.2519 27.7951 23.1315 26.1504L22.8681 25.8494C21.0267 27.4607 17.8756 29.4315 14.4557 30.7893C11.0294 32.1495 7.37522 32.8776 4.51022 32.0562L4.39998 32.4407ZM2.8 23.9998C2.8 26.9218 3.31797 29.7233 4.26728 32.3172L4.64292 32.1797C3.70949 29.6292 3.2 26.8742 3.2 23.9998H2.8ZM26.9998 -0.2C13.6346 -0.2 2.8 10.6346 2.8 23.9998H3.2C3.2 10.8555 13.8555 0.2 26.9998 0.2V-0.2ZM39.2995 3.15441C35.6951 1.02309 31.49 -0.2 26.9998 -0.2V0.2C31.4164 0.2 35.5515 1.40286 39.0959 3.49872L39.2995 3.15441ZM23.3275 8.86949C24.7074 7.48953 27.3606 6.3541 30.3554 5.46059C33.3393 4.57036 36.6231 3.93109 39.2286 3.52417L39.1669 3.12896C36.5516 3.53742 33.2484 4.18003 30.2411 5.07729C27.2447 5.97125 24.5024 7.12888 23.0446 8.58664L23.3275 8.86949ZM32.2564 21.7064L23.3514 8.61558L23.0207 8.84056L31.9257 21.9314L32.2564 21.7064ZM49.5111 15.3639C46.5569 14.8024 43.0563 15.6062 39.8654 16.9255C36.6704 18.2465 33.7545 20.0975 31.9593 21.6683L32.2227 21.9694C33.9818 20.4302 36.8594 18.6012 40.0182 17.2951C43.1812 15.9874 46.5948 15.2168 49.4364 15.7568L49.5111 15.3639ZM51.1996 23.9998C51.1996 21.0054 50.6556 18.1375 49.661 15.49L49.2865 15.6307C50.2645 18.2339 50.7996 21.0541 50.7996 23.9998H51.1996Z" fill="#3A72A3" mask="url(#path-1-inside-1_961_9887)"/>
<path d="M0 58.9995V51.9995H0.887836V58.9995H0Z" fill="#414141"/>
<path d="M2.43101 58.9995V51.9995H5.35101C5.66011 51.9995 5.9429 52.0652 6.19938 52.1967C6.45587 52.3216 6.67947 52.4925 6.87019 52.7094C7.06091 52.9197 7.20889 53.1596 7.31411 53.4291C7.41934 53.692 7.47195 53.9615 7.47195 54.2375C7.47195 54.6188 7.38645 54.9835 7.21546 55.3319C7.04447 55.6737 6.80443 55.953 6.49533 56.1699C6.18623 56.3803 5.82452 56.4854 5.4102 56.4854H3.31885V58.9995H2.43101ZM3.31885 55.6967H5.36087C5.60421 55.6967 5.81466 55.631 5.99222 55.4995C6.17637 55.3681 6.31776 55.1906 6.41641 54.9671C6.52164 54.7436 6.57425 54.5005 6.57425 54.2375C6.57425 53.9615 6.51506 53.715 6.39668 53.4981C6.2783 53.2746 6.12375 53.1005 5.93303 52.9756C5.74231 52.8507 5.53186 52.7882 5.30168 52.7882H3.31885V55.6967Z" fill="#414141"/>
<path d="M10.4093 51.9995L12.7276 57.8854L15.0359 51.9995H15.9731L13.132 58.9995H12.3231L9.47217 51.9995H10.4093Z" fill="#414141"/>
<path d="M16.7855 58.9995V51.9995H17.6733V58.9995H16.7855Z" fill="#414141"/>
<path d="M23.9714 58.2108V58.9995H19.2165V51.9995H23.8826V52.7882H20.1044V55.0559H23.3894V55.7953H20.1044V58.2108H23.9714Z" fill="#414141"/>
<path d="M30.1086 52.7882H27.6918V58.9995H26.8039V52.7882H24.387V51.9995H30.1086V52.7882Z" fill="#414141"/>
<path d="M33.9386 53.6361V58.9995H33.0508V51.9995H33.8005L38.0819 57.4713V52.0094H38.9697V58.9995H38.1608L33.9386 53.6361Z" fill="#414141"/>
<path d="M42.6414 51.9995H43.3911L46.2519 58.9995H45.3049L44.4762 56.9488H41.5365L40.7177 58.9995H39.7707L42.6414 51.9995ZM44.2789 56.2587L43.0162 53.0249L41.7141 56.2587H44.2789Z" fill="#414141"/>
<path d="M53.1122 58.9995V53.6558L50.8038 57.7671H50.2612L47.943 53.6558V58.9995H47.0552V51.9995H47.9923L50.5276 56.5446L53.0727 51.9995H54V58.9995H53.1122Z" fill="#414141"/>
<path d="M23 26V8.5L32 21.7143V39.5L23 26Z" fill="#015697"/>
</svg>