<svg width="60" height="40" viewBox="0 0 60 40" fill="none" xmlns="http://www.w3.org/2000/svg">
<g clipPath="url(#clip0_827_70279)">
<path d="M54.1308 40L5.86461 40C4.30922 40 2.81753 39.3835 1.71771 38.2862C0.617879 37.1888 -1.07739e-07 35.7005 -1.07739e-07 34.1486L-1.07739e-07 5.85143C-1.07739e-07 4.29953 0.617879 2.8112 1.71771 1.71384C2.81753 0.616487 4.30922 1.90322e-07 5.86461 1.90322e-07L45.7921 1.90322e-07C46.1095 -0.000125686 46.4238 0.0621894 46.717 0.183381C47.0103 0.304573 47.2767 0.482262 47.5011 0.706285L59.2921 12.4709C59.5167 12.6947 59.6947 12.9605 59.8162 13.2531C59.9377 13.5457 60.0001 13.8593 60 14.176V34.1509C59.9997 34.9195 59.8476 35.6805 59.5525 36.3905C59.2573 37.1004 58.8249 37.7454 58.2799 38.2886C57.7348 38.8318 57.0879 39.2625 56.376 39.5561C55.6641 39.8498 54.9012 40.0006 54.1308 40Z" fill="#F3543F"/>
<path d="M29.9414 28.5455L29.9414 11.4545C29.9414 9.96083 28.7475 8.75 27.2748 8.75L10.1667 8.75C8.69397 8.75 7.50011 9.96083 7.50011 11.4545L7.50011 28.5455C7.50011 30.0392 8.69397 31.25 10.1667 31.25L27.2748 31.25C28.7475 31.25 29.9414 30.0392 29.9414 28.5455Z" fill="#FDCB77"/>
<line x1="7.5" y1="14.5" x2="13.75" y2="14.5" stroke="#F49D03"/>
<line x1="23.75" y1="14.5" x2="30" y2="14.5" stroke="#F49D03"/>
<line x1="23.75" y1="19.5" x2="30" y2="19.5" stroke="#F49D03"/>
<line x1="23.75" y1="24.5" x2="30" y2="24.5" stroke="#F49D03"/>
<path d="M46 14H55" stroke="#EFC071" stroke-width="3" stroke-linecap="round"/>
<path d="M46 19H55" stroke="#EFC071" stroke-width="3" stroke-linecap="round"/>
<path d="M46 24H55" stroke="#EFC071" stroke-width="3" stroke-linecap="round"/>
<path d="M50 29H55" stroke="#EFC071" stroke-width="3" stroke-linecap="round"/>
<line x1="7.5" y1="19.5" x2="13.75" y2="19.5" stroke="#F49D03"/>
<line x1="7.5" y1="24.5" x2="13.75" y2="24.5" stroke="#F49D03"/>
<line x1="13.5" y1="29" x2="13.5" y2="14" stroke="#F49D03"/>
<line x1="23.25" y1="31.25" x2="23.25" y2="8.75" stroke="#F49D03"/>
</g>
<defs>
<clipPath id="clip0_827_70279">
<rect width="40" height="60" fill="white" transform="matrix(0 1 -1 0 60 0)"/>
</clipPath>
</defs>
</svg>
